<svg id="Capa_1" data-name="Capa 1" xmlns="http://www.w3.org/2000/svg" viewBox="0 0 115.99 85"><defs><style>.cls-1{fill:#fff;}.cls-2{fill:#e20613;}.cls-3,.cls-4{fill:#333d7f;}.cls-3{fill-rule:evenodd;}</style></defs><title>logo-pago-express</title><path class="cls-1" d="M1683,100.66a6.06,6.06,0,0,1-1.39-.16,6.06,6.06,0,0,1-4.74-5.69v-7h-52.36a7.57,7.57,0,0,1-7.56-7.56V36.09a7.57,7.57,0,0,1,7.56-7.56h52.36V21.63a6.26,6.26,0,0,1,.5-2.3,6.15,6.15,0,0,1,4.24-3.51,6,6,0,0,1,5.31,1.3l2.47,2.1,17.49,14.48,21.67,17.81a8.37,8.37,0,0,1,.67.6l1.46,1.19a6.12,6.12,0,0,1,2,2.92l0.06,0.2a6.14,6.14,0,0,1,.23,1.65v0.14a6.06,6.06,0,0,1-.22,1.68l-0.06.2a6.13,6.13,0,0,1-2,2.93l-1.59,1.31a4,4,0,0,1-.42.38L1686.94,99.2A6,6,0,0,1,1683,100.66Zm-58.49-68.59a4,4,0,0,0-4,4V80.23a4,4,0,0,0,4,4h55.83l0.07,1.84V94.5a2.83,2.83,0,0,0,.21,1.08,2.59,2.59,0,0,0,1.79,1.46,2.49,2.49,0,0,0,2.22-.55l2.47-2.1L1704.58,80l21.75-17.87a5.19,5.19,0,0,0,.41-0.36l1.72-1.43a2.57,2.57,0,0,0,.83-1.23,2.79,2.79,0,0,0,.13-0.8V58.06a2.59,2.59,0,0,0-.09-0.69,2.68,2.68,0,0,0-.86-1.34l-1.59-1.31-0.41-.37-0.14-.11-41.67-34.42a2.49,2.49,0,0,0-2.21-.55,2.52,2.52,0,0,0-2,2.39V32l-1.84.07h-54.06Z" transform="translate(-1616.96 -15.66)"/><path class="cls-2" d="M1731.2,58.16s0-.06,0-0.1a4.34,4.34,0,0,0-.16-1.16l0-.05,0-.11a4.33,4.33,0,0,0-1.39-2.07L1728,53.36c-0.13-.13-0.27-0.26-0.42-0.38l-0.13-.1L1705.73,35l0,0-17.42-14.41-2.47-2.1a4.32,4.32,0,0,0-7.13,3.11s0,0,0,.07,0,0.05,0,.08,0,0,0,0v0h0v5.61h0v2.8a0.07,0.07,0,0,1-.07.07h-54.06a5.79,5.79,0,0,0-5.79,5.79V58.16h0V80.23a5.79,5.79,0,0,0,5.79,5.79h54.06a0.07,0.07,0,0,1,.07.07v2.8h0V94.5h0v0s0,0,0,0,0,0.05,0,.08,0,0,0,.07a4.32,4.32,0,0,0,7.13,3.11l2.47-2.1,17.42-14.41,0,0,21.74-17.87,0.13-.1c0.15-.12.28-0.25,0.42-0.38l1.59-1.31a4.33,4.33,0,0,0,1.39-2.07l0-.11,0-.05a4.34,4.34,0,0,0,.16-1.16s0-.06,0-0.1h0Z" transform="translate(-1616.96 -15.66)"/><path class="cls-1" d="M1715.72,55.75l-6.43-5.17v0l-7.84-6.29h0L1688.78,34.2l-0.09-.07a1.81,1.81,0,0,0-2.35,0l0,0-0.06.06a1.72,1.72,0,0,0-.52,1.12c0,0.06,0,.11,0,0.17v0.62h0v2.76H1628.6a1.9,1.9,0,0,0-1.9,1.9V44l0,0V72.32l0,0v3.16a1.9,1.9,0,0,0,1.9,1.9h57.13v2.76h0v0.62c0,0.06,0,.11,0,0.17a1.72,1.72,0,0,0,.52,1.12l0.06,0.06,0,0a1.81,1.81,0,0,0,2.35,0l0.09-.07L1701.44,72h0l6.54-5.3v0l7.74-6.29A3,3,0,0,0,1715.72,55.75Z" transform="translate(-1616.96 -15.66)"/><path class="cls-2" d="M1674.94,54.41a2.53,2.53,0,0,0,2-1,4.21,4.21,0,0,0,.82-2.61,4.13,4.13,0,0,0-.79-2.61,2.48,2.48,0,0,0-2-1,2.45,2.45,0,0,0-2,1.06,4.64,4.64,0,0,0-.05,5.21,2.42,2.42,0,0,0,2,1m5.78-3.68a7.52,7.52,0,0,1-.44,2.51,6.49,6.49,0,0,1-1.26,2.09,5.92,5.92,0,0,1-1.9,1.42,5.23,5.23,0,0,1-4.42,0,5.65,5.65,0,0,1-1.85-1.39,6.39,6.39,0,0,1-1.26-2.1,7.59,7.59,0,0,1,0-5,6.38,6.38,0,0,1,1.28-2.09,5.81,5.81,0,0,1,1.88-1.43,5.17,5.17,0,0,1,2.21-.5,5.09,5.09,0,0,1,2.22.47,5.45,5.45,0,0,1,1.86,1.4,6.24,6.24,0,0,1,1.23,2.08,7,7,0,0,1,.41,2.5M1662,52.47l0-2.6,5.78,0c0,0.08,0,.18,0,0.28v0.46a7.65,7.65,0,0,1-1.5,5,5.22,5.22,0,0,1-4.16,1.8,5.59,5.59,0,0,1-2.33-.44,5,5,0,0,1-1.82-1.37,6.3,6.3,0,0,1-1.18-2.09,7.49,7.49,0,0,1-.4-2.55,7.77,7.77,0,0,1,.42-2.55,6.62,6.62,0,0,1,1.25-2.1,5.82,5.82,0,0,1,1.87-1.39,5.49,5.49,0,0,1,2.27-.47,5.33,5.33,0,0,1,2.8.69,5.73,5.73,0,0,1,2,2.12l-2.57,1.42a3.29,3.29,0,0,0-1-1.06,2.34,2.34,0,0,0-1.27-.34,2.47,2.47,0,0,0-2.09,1,5.42,5.42,0,0,0,0,5.54,2.41,2.41,0,0,0,2.07,1,2.82,2.82,0,0,0,1.88-.64,2.53,2.53,0,0,0,.88-1.68Zm-17.07,4.68,3.81-12.42,3.69,0,3.64,12.36-2.93,0-0.53-2.22-4.18,0-0.57,2.22Zm4.16-4.66,2.93,0L1651,48.39c0-.13-0.07-0.33-0.12-0.6s-0.14-.63-0.24-1.06c0,0.31-.12.59-0.19,0.87s-0.12.54-.19,0.8Zm-8.9-2.12h0.56a2.49,2.49,0,0,0,1.48-.35,1.4,1.4,0,0,0,.43-1.14,1.34,1.34,0,0,0-.41-1.11,2.37,2.37,0,0,0-1.46-.31h-0.58Zm0,6.81-2.76,0,0.08-12.38,3.07,0a10.35,10.35,0,0,1,2.54.18,2.92,2.92,0,0,1,1.24.69,3.5,3.5,0,0,1,.9,1.41,5.44,5.44,0,0,1,.3,1.89,5.52,5.52,0,0,1-.31,2,3.41,3.41,0,0,1-.93,1.39,2.63,2.63,0,0,1-1.07.6,8.66,8.66,0,0,1-2,.2h-1Z" transform="translate(-1616.96 -15.66)"/><path class="cls-3" d="M1709,60.25h0.18a0.47,0.47,0,0,0,.25-0.06,0.26,0.26,0,0,0,0-.37,0.47,0.47,0,0,0-.26-0.06H1709v0.48Zm-0.22.88,0-1.55h0.47a0.59,0.59,0,0,1,.38.12,0.36,0.36,0,0,1,.14.3,0.43,0.43,0,0,1-.07.25,0.51,0.51,0,0,1-.23.14l0.08,0.05,0.1,0.12,0.4,0.57h-0.28l-0.28-.41a0.88,0.88,0,0,0-.2-0.24,0.32,0.32,0,0,0-.19-0.05H1709v0.69h-0.23Zm-1.91,0V59.57h0.2l0.58,0.65,0.58-.65h0.21v1.55h-0.22l0-1.2-0.56.61-0.55-.63v1.2h-0.23Zm1.53-2.54a1.87,1.87,0,0,1,1.88,1.81,1.79,1.79,0,0,1-1.86,1.77,1.86,1.86,0,0,1-1.89-1.8,1.82,1.82,0,0,1,1.87-1.78m0-.47a2.35,2.35,0,0,1,2.38,2.28,2.27,2.27,0,0,1-2.34,2.25,2.35,2.35,0,0,1-2.38-2.27,2.28,2.28,0,0,1,2.34-2.25" transform="translate(-1616.96 -15.66)"/><path class="cls-4" d="M1636.76,70.83h-7.81l8.19-11.88a0.23,0.23,0,0,1,.17-0.1h7.55l-1.79,2.59h-4.83l-1.37,2h4.48L1639.6,66h-4.48l-1.47,2.12h5Z" transform="translate(-1616.96 -15.66)"/><path class="cls-4" d="M1678.43,70.76h-7.81l8.26-12h7.65l-1.79,2.59h-4.83l-1.37,2H1683l-1.76,2.56h-4.48L1675.31,68h5Z" transform="translate(-1616.96 -15.66)"/><path class="cls-4" d="M1645.63,64.69l0.41-5.84h3.32l-0.14,3.38,4.44-3.33a0.26,0.26,0,0,1,.15-0.06H1657l-7.66,5.84-0.43,6.14h-3.32l0.17-3.66L1641,70.75a0.38,0.38,0,0,1-.21.08h-3.21Z" transform="translate(-1616.96 -15.66)"/><path class="cls-4" d="M1658.24,58.84h4.33q2.1,0,2.53,1a2.6,2.6,0,0,1-.21,2.27,8,8,0,0,1-.79,1.2,9.37,9.37,0,0,1-6.64,3.52h-1.9l-2.74,4H1650Zm-0.76,5.22h1.69a2.82,2.82,0,0,0,1.35-.34,2.46,2.46,0,0,0,.87-0.67,5.21,5.21,0,0,0,.29-0.44,0.73,0.73,0,0,0,.05-0.69,0.93,0.93,0,0,0-.87-0.3h-1.69Z" transform="translate(-1616.96 -15.66)"/><path class="cls-4" d="M1668.58,58.84H1673q2.07,0,2.49,1a2.6,2.6,0,0,1-.21,2.25,6.68,6.68,0,0,1-.44.72,9,9,0,0,1-2,2.05,9.15,9.15,0,0,1-2.53,1.38l-0.73,4.56h-3.2a0,0,0,0,1,0,0l0.76-4h-1.18l-2.74,4h-2.84Zm-0.76,5.22h1.72a2.73,2.73,0,0,0,1.33-.34,2.89,2.89,0,0,0,1-.89l0.13-.23a0.75,0.75,0,0,0,.05-0.68,0.86,0.86,0,0,0-.85-0.3h-1.72Z" transform="translate(-1616.96 -15.66)"/><path class="cls-4" d="M1683.67,67.33a1.77,1.77,0,0,0,1.9,1.18,3,3,0,0,0,1.36-.3,1.92,1.92,0,0,0,.89-0.85,0.58,0.58,0,0,0-.12-0.75,3.87,3.87,0,0,0-.9-0.61,7.2,7.2,0,0,1-1.07-.67,1.72,1.72,0,0,1-.64-1.1,2.73,2.73,0,0,1,.38-1.72,7,7,0,0,1,2.69-2.86,7.24,7.24,0,0,1,3.77-1.05,4.11,4.11,0,0,1,2.05.49,1.84,1.84,0,0,1,1,1.46l-3,1.55h0a0.85,0.85,0,0,0-.44-0.68,1.93,1.93,0,0,0-1-.26,2.91,2.91,0,0,0-1.24.25,1.57,1.57,0,0,0-.78.7,0.52,0.52,0,0,0,.15.68,4.11,4.11,0,0,0,.92.58,7.38,7.38,0,0,1,1.09.66,1.65,1.65,0,0,1,.65,1.11,2.83,2.83,0,0,1-.39,1.73A7.53,7.53,0,0,1,1688,70a7.66,7.66,0,0,1-4,1.13,4.78,4.78,0,0,1-2.25-.49,2,2,0,0,1-1.1-1.48Z" transform="translate(-1616.96 -15.66)"/><path class="cls-4" d="M1693,67.33a1.77,1.77,0,0,0,1.9,1.18,3,3,0,0,0,1.36-.3,1.92,1.92,0,0,0,.89-0.85,0.58,0.58,0,0,0-.12-0.75,3.87,3.87,0,0,0-.9-0.61,7.2,7.2,0,0,1-1.07-.67,1.72,1.72,0,0,1-.64-1.1,2.73,2.73,0,0,1,.38-1.72,7,7,0,0,1,2.69-2.86,7.24,7.24,0,0,1,3.77-1.05,4.11,4.11,0,0,1,2.05.49,1.84,1.84,0,0,1,1,1.46l-3,1.55h0a0.85,0.85,0,0,0-.44-0.68,1.93,1.93,0,0,0-1-.26,2.91,2.91,0,0,0-1.24.25,1.57,1.57,0,0,0-.78.7,0.52,0.52,0,0,0,.15.68,4.11,4.11,0,0,0,.92.58A7.38,7.38,0,0,1,1700,64a1.65,1.65,0,0,1,.65,1.11,2.83,2.83,0,0,1-.39,1.73,7.53,7.53,0,0,1-2.88,3.07,7.66,7.66,0,0,1-4,1.13,4.78,4.78,0,0,1-2.25-.49,2,2,0,0,1-1.1-1.48Z" transform="translate(-1616.96 -15.66)"/></svg>