<?xml version="1.0" encoding="utf-8"?>
<!-- Generator: Adobe Illustrator 21.1.0, SVG Export Plug-In . SVG Version: 6.00 Build 0)  -->
<svg version="1.1" id="Layer_1" xmlns="http://www.w3.org/2000/svg" xmlns:xlink="http://www.w3.org/1999/xlink" x="0px" y="0px"
	 viewBox="0 0 230 165" style="enable-background:new 0 0 230 165;" xml:space="preserve">
<style type="text/css">
	.st0{fill:#1B307A;}
	.st1{fill-rule:evenodd;clip-rule:evenodd;fill:#1B307A;}
	.st2{fill:none;stroke:#FFFFFF;stroke-width:0.33;stroke-miterlimit:10;}
	.st3{fill:none;stroke:#FFFFFF;stroke-width:0.331;stroke-miterlimit:10;}
	.st4{fill:#008A36;}
	.st5{fill:#FFFFFF;}
</style>
<g>
	<g>
		<defs>
			<path id="SVGID_1_" d="M98.2,12.1c-1.3,4.4,3.2,11.7,6.9,17.7c3.7,5.9,19.2,27,17.5,51.2c-1.6,24.2-20.1,50.5-22.9,55.9
				c-8.9,17.2-1.4,22.8,16.3,22.1c8.3-0.3,28.4-3.3,49.9-15.1c28.8-15.9,59.3-43.2,59.1-64.6c-0.2-22.6-25.9-44.1-52.1-57.7
				c-17.2-8.9-34.8-14-45.1-15c-4.5-0.4-8.4-0.6-11.6-0.6C100.9,5.9,98.7,10.2,98.2,12.1"/>
		</defs>
		<linearGradient id="SVGID_2_" gradientUnits="userSpaceOnUse" x1="78.9108" y1="135.7545" x2="188.1431" y2="26.5221">
			<stop  offset="0" style="stop-color:#14AD00"/>
			<stop  offset="1" style="stop-color:#80FF00"/>
		</linearGradient>
		<use xlink:href="#SVGID_1_"  style="overflow:visible;fill-rule:evenodd;clip-rule:evenodd;fill:url(#SVGID_2_);"/>
		<clipPath id="SVGID_3_">
			<use xlink:href="#SVGID_1_"  style="overflow:visible;"/>
		</clipPath>
	</g>
	<path class="st0" d="M5,100.6V66.2c3.2-1.2,6.9-2,10.2-2c5.5,0,10.4,2.3,10.9,9.1v9.1c0.1,7.3-8.3,10.6-14,8v10.3H5z M12.1,85.2
		c2.3,1.3,6.6,0.5,7-2.5V72.6c-0.1-3.1-4.6-3.8-7-2.6V85.2z"/>
	<path class="st0" d="M37.1,64.7L37.1,64.7c0.7-0.2,1.8-0.3,2.5-0.3c1,0,2.1,0.1,3.7,0.5v5.7c-3-0.8-6.6,0.3-6.9,3.2V91h-7V73.7
		c0-3.8,2.2-6.7,5-8.1C35.2,65.2,36.2,64.9,37.1,64.7"/>
	<path class="st0" d="M58.2,74.8c0-6.1-6.7-5.8-9.5-2.7l-3.4-3.2c5.4-7.5,19.8-5.5,19.8,4.5v16.2c-3.1,1.2-6.7,1.9-9.9,1.9
		C40.8,91.6,41,74,53.9,74C55.3,74,56.9,74.2,58.2,74.8 M58,79.9c-0.8-0.3-2-0.5-3.2-0.5c-5.5,0.1-5.1,6.8,0.3,6.8
		c1,0,2-0.1,2.9-0.4V79.9z"/>
	<path class="st0" d="M88.9,84.2c-1.8,5.3-6.5,7.1-10.2,7.1c-5.2,0-10.5-3-10.5-9.3v-8.2c0-6.2,5.3-9.3,10.5-9.3
		c3.7,0,8.6,1.7,9.9,7.1l-6,1.9c-1.2-3.9-7.4-3.2-7.4,0.3V82c0,3.6,6.1,4.4,7.5,0.2L88.9,84.2z"/>
	<path class="st0" d="M103.6,90.7c-7,2.3-12.4-0.7-12.4-8.9V55.2h7v9.6h4.7v7h-4.7v9.9c0,3,2,4.5,5.4,3.8V90.7z"/>
	<path class="st1" d="M107.8,53.8c0-0.1,0.2-0.4,1.5-0.3c0.5,0.1,1.4,0.3,2.3,0.8c1.4,0.7,2.7,1.8,2.7,3c0,1.1-1.6,2.5-3.1,3.3
		c-1.1,0.6-2.2,0.8-2.6,0.8c-0.9,0-1.3-0.3-0.8-1.1c0.1-0.3,1.1-1.6,1.2-2.9c0.1-1.3-0.7-2.3-0.9-2.7
		C108,54.5,107.7,54.1,107.8,53.8"/>
	<rect x="107.5" y="64.8" class="st0" width="7" height="26.3"/>
	<path class="st2" d="M102.1,16.8c0.6-2.2,3.1-8.2,30.1-3.8c9.7,1.6,24,6.1,38.3,13.4c25.4,13.1,51.2,33.9,51.3,54.3
		c0.1,18.5-28.6,45.5-56.3,60.3c-23.8,12.7-39.6,14.7-47.5,15c-16.9,0.7-24.2-3.3-13.9-21c4.3-7.4,19.7-29.5,21.4-53.9
		c1.7-24.4-10.4-38.6-13.9-44.2C108,31.3,100.9,21,102.1,16.8"/>
	<path class="st3" d="M101.9,13.3c0.6-2.2,3.1-8.3,29.9-3.8c9.6,1.6,23.9,6.1,38.1,13.6c25.3,13.2,50.9,34.3,51.1,54.9
		c0.1,18.7-28.4,46-56,61c-23.7,12.9-39.4,14.8-47.3,15.1c-16.8,0.7-24.1-3.4-13.8-21.3c4.3-7.4,19.6-29.8,21.3-54.5
		c1.7-24.7-10.4-39-13.9-44.7C107.8,27.9,100.7,17.5,101.9,13.3"/>
	<path class="st4" d="M164,73c0-6.1-6.7-5.8-9.5-2.7l-3.4-3.2c5.4-7.5,19.8-5.5,19.8,4.5v16.2c-3.1,1.2-6.7,1.9-9.9,1.9
		c-14.3,0-14.2-17.6-1.2-17.6C161.1,72.2,162.7,72.3,164,73 M163.8,78.1c-0.8-0.3-2-0.5-3.2-0.5c-5.5,0.2-5.1,6.8,0.3,6.8
		c1,0,2-0.1,2.9-0.4V78.1z"/>
	<path class="st4" d="M178.8,91.1c2.7,2.6,9.4,2.6,9.4-2.3c-6.3,2.1-13.9-0.6-13.9-7.8v-9.9c0-10.5,13.8-10.1,20.8-6.6v23.6
		c0,11.2-14,13.4-19.9,6.6L178.8,91.1z M188.1,68.2c-2.4-1.2-6.9-0.4-7,2.8v9.9c0.4,3,4.7,3.5,7,2.3V68.2z"/>
	<path class="st4" d="M208.8,62.4c5.2,0.1,10.5,3.1,10.5,9.4v8.5c0,6.3-5.3,9.3-10.5,9.3c-5.3-0.1-10.5-3-10.5-9.3v-8.5
		C198.3,65.6,203.6,62.5,208.8,62.4 M205.4,71.8v8.7c0,1.7,1.8,2.8,3.5,2.8c1.6,0,3.4-1.2,3.4-2.8v-8.7c0-1.7-1.8-2.6-3.4-2.6
		C207.2,69.2,205.4,70.1,205.4,71.8"/>
	<path class="st4" d="M126,98.8V64.4c3.2-1.2,6.9-2,10.2-2c5.5,0,10.4,2.3,10.9,9.1v9.1c0.1,7.3-8.3,10.6-14,8v10.3H126z
		 M133.1,83.4c2.3,1.3,6.6,0.5,7-2.5V70.8c-0.1-3.1-4.6-3.8-7-2.6V83.4z"/>
	<path class="st5" d="M128.1,100.2V66.7c3.1-1.2,6.7-1.9,9.9-1.9c5.4,0,10.1,2.2,10.6,8.8v8.8c0.1,7.1-8.1,10.3-13.6,7.8v10H128.1z
		 M135,85.2c2.2,1.2,6.5,0.5,6.8-2.5V73c-0.1-3.1-4.4-3.7-6.8-2.6V85.2z"/>
	<path class="st5" d="M165,75.1c0-6-6.5-5.6-9.3-2.6l-3.4-3.1c5.3-7.3,19.3-5.4,19.3,4.4v15.8c-3,1.1-6.5,1.9-9.6,1.9
		c-13.9,0-13.8-17.1-1.2-17.1C162.2,74.3,163.8,74.4,165,75.1 M164.8,80c-0.7-0.3-1.9-0.5-3.1-0.4c-5.3,0.1-5,6.6,0.2,6.6
		c1,0,1.9-0.1,2.9-0.3V80z"/>
	<path class="st5" d="M179.4,92.7c2.7,2.5,9.2,2.6,9.2-2.2c-6.1,2.1-13.5-0.5-13.5-7.6v-9.6c0-10.2,13.4-9.9,20.3-6.4v23
		c0,10.9-13.6,13.1-19.4,6.4L179.4,92.7z M188.5,70.5c-2.4-1.2-6.7-0.3-6.8,2.7v9.7c0.3,3,4.6,3.4,6.8,2.2V70.5z"/>
	<path class="st5" d="M208.7,64.8c5.1,0,10.2,3.1,10.2,9.1v8.3c0,6.2-5.1,9-10.2,9.1c-5.1,0-10.2-2.9-10.2-9.1v-8.3
		C198.4,67.8,203.5,64.8,208.7,64.8 M205.3,73.9v8.4c0,1.6,1.8,2.8,3.4,2.8c1.6,0,3.3-1.1,3.3-2.8v-8.4c0-1.6-1.8-2.5-3.3-2.5
		C207,71.4,205.3,72.3,205.3,73.9"/>
</g>
</svg>
